<?xml version="1.0" encoding="UTF-8" standalone="no"?>
<!DOCTYPE svg PUBLIC "-//W3C//DTD SVG 1.1//EN" "http://www.w3.org/Graphics/SVG/1.1/DTD/svg11.dtd">
<svg width="87" height="35" viewBox="0 0 87 35" xmlns="http://www.w3.org/2000/svg" xmlns:xlink="http://www.w3.org/1999/xlink">
<defs>
	<linearGradient id="Grad5" y2="155" gradientUnits="userSpaceOnUse" y1="118" x2="126" x1="89">
		<stop stop-color="#ff5959" offset="0"/>
		<stop stop-color="#df0000" offset="1"/>
	</linearGradient>
	<linearGradient id="Grad7" y2="155" gradientUnits="userSpaceOnUse" y1="191.4" x2="126.03" x1="89.626">
		<stop stop-color="#ffb73d" offset="0"/>
		<stop stop-color="#ffa000" offset="1"/>
	</linearGradient>
	<linearGradient id="Grad8" y2="155" gradientUnits="userSpaceOnUse" y1="186.69" x2="126" x1="157.69">
		<stop stop-color="#fff18d" offset="0"/>
		<stop stop-color="#ffcd01" offset="1"/>
	</linearGradient>
	<linearGradient id="Grad2" y2="121.02" gradientUnits="userSpaceOnUse" y1="178.81" x2="92.016" x1="149.81">
		<stop stop-color="#fff" offset="0"/>
		<stop stop-color="#fff" stop-opacity="0" offset="1"/>
	</linearGradient>
	<linearGradient id="Grad6" y2="155" gradientUnits="userSpaceOnUse" y1="189.85" x2="126" x1="91.149">
		<stop stop-color="#00a000" stop-opacity=".25893" offset="0"/>
		<stop stop-color="green" offset="1"/>
	</linearGradient>
	<linearGradient id="Grad1" y2="155" gradientUnits="userSpaceOnUse" y1="155" x2="163" x1="89">
		<stop stop-color="#263cce" offset="0"/>
		<stop stop-color="#263cce" stop-opacity="0" offset="1"/>
	</linearGradient>
	<linearGradient id="Grad3" y2="115.36" gradientUnits="userSpaceOnUse" y1="155" x2="57.341" x1="126">
		<stop stop-color="#652f99" offset="0"/>
		<stop stop-color="#502679" stop-opacity=".65179" offset="1"/>
	</linearGradient>
	<filter id="filter1" style="color-interpolation-filters:sRGB">
		<feGaussianBlur stdDeviation="1.31195" result="blur"/>
		<feComposite operator="atop" result="composite1" in2="blur" in="SourceGraphic"/>
		<feComposite operator="in" result="composite2" in2="composite1"/>
		<feComposite operator="in" result="composite3" in2="composite2"/>
	</filter>
</defs>
<path d="m17.07 1.25a16.25 16.25 0 0 0 -16.25 16.25 16.25 16.25 0 0 0 16.25 16.25 16.25 16.25 0 0 0 10.618 -3.977c0.06872 0.0035 0.13351 0.02148 0.20312 0.02148h52.939c2.216 0 4-1.784 4-4v-16.59c0-2.216-1.784-4-4-4h-52.939c-0.06425 0-0.12401 0.016565-0.1875 0.019531a16.25 16.25 0 0 0 -10.634 -3.9735z" fill="#fc3"/>
<g fill="#fff4d2">
	<path d="m21.164 5.3125c-6.4067 0-11.607 5.2007-11.607 11.607 0 6.4067 5.2007 11.609 11.607 11.609 6.4067 0 11.609-5.2027 11.609-11.609 0-6.4067-5.2027-11.607-11.609-11.607zm0 0.75c6.0013 0 10.859 4.8561 10.859 10.857 0 6.0013-4.858 10.859-10.859 10.859-6.0013 0-10.857-4.858-10.857-10.859 0-6.0013 4.8561-10.857 10.857-10.857z"/>
	<path d="m19.541 1.6387c-6.114 1.8882-10.562 7.5866-10.562 14.318 0 8.2705 6.7119 14.982 14.982 14.982 1.0956 0 2.1553-0.13823 3.1836-0.36328 0.11875-0.24212 0.06812-0.53972 0.10156-0.7793-0.0029-0.0028-0.0033-0.0068-0.0059-0.0098-1.0545 0.2512-2.1475 0.40234-3.2793 0.40234-7.8652 0-14.232-6.3672-14.232-14.232 0-6.8512 4.8332-12.564 11.277-13.924-0.614-0.1738-0.855-0.246-1.466-0.3944zm13.914 3.7305c2.9041 2.6055 4.7402 6.3764 4.7402 10.588 0 6.3486-4.152 11.717-9.8887 13.553 0.44583 0.13673 0.91501 0.22801 1.3145 0.31445 5.4658-2.2351 9.3242-7.6005 9.3242-13.867 0-4.0846-1.641-7.7863-4.2949-10.49-0.40466-0.036211-0.83134-0.070255-1.1953-0.097656z"/>
	<path d="m43.761 5.2383c2.1268 3.0182 3.2562 6.7127 3.2562 10.719 0 5.3765-0.62766 10.196-4.2252 13.555 0.39492-0.000113 0.754-0.000026 1.0937 0 3.4109-3.4652 3.8814-8.26 3.8814-13.555 0-3.9707-1.0518-7.6597-3.0843-10.719z"/>
</g>
<circle opacity=".45" transform="matrix(1.057 0 0 1.057 -1.3656 -.64323)" filter="url(#filter1)" cy="17.499" cx="17.059" r="13.965"/>
<g transform="matrix(.11329 0 0 .11329 -11.875 -8.7264)">
	<path fill="url(#Grad5)" d="m163 155a37 37 0 0 1 -22.84 34.18 37 37 0 0 1 -40.323 -8.02 37 37 0 0 1 -8.021 -40.32 37 37 0 0 1 34.184 -22.84v37z" transform="matrix(2.9189,0,0,2.9189,-112.28,-220.93)"/>
	<path fill="url(#Grad7)" d="m163 155a37 37 0 0 1 -22.84 34.18 37 37 0 0 1 -40.323 -8.02 37 37 0 0 1 -8.021 -40.32 37 37 0 0 1 34.184 -22.84v37z" transform="matrix(0,2.5019,-2.5019,0,643.3,-83.743)"/>
	<path fill="url(#Grad8)" d="m163 155a37 37 0 0 1 -22.84 34.18 37 37 0 0 1 -40.323 -8.02 37 37 0 0 1 -8.021 -40.32 37 37 0 0 1 34.184 -22.84v37z" transform="matrix(-2.0849,0,0,-2.0849,518.2,554.67)"/>
	<path fill="url(#Grad2)" d="m163 155a37 37 0 0 1 -22.84 34.18 37 37 0 0 1 -40.323 -8.02 37 37 0 0 1 -8.021 -40.32 37 37 0 0 1 34.184 -22.84v37z" transform="matrix(0,-1.668,1.668,0,-3.0327,441.66)"/>
	<path fill="url(#Grad6)" d="m163 155a37 37 0 0 1 -22.84 34.18 37 37 0 0 1 -40.323 -8.02 37 37 0 0 1 -8.021 -40.32 37 37 0 0 1 34.184 -22.84v37z" transform="matrix(1.251,0,0,1.251,97.879,37.601)"/>
	<path fill="url(#Grad1)" d="m163 155a37 37 0 0 1 -22.84 34.18 37 37 0 0 1 -40.323 -8.02 37 37 0 0 1 -8.021 -40.32 37 37 0 0 1 34.184 -22.84v37z" transform="matrix(0 .83398 -.83398 0 384.77 127.04)"/>
	<circle transform="matrix(-.41699 0 0 -.41699 308.04 296.13)" cy="155" cx="126" r="37" fill="url(#Grad3)"/>
</g>
<path d="m38.812 5.2383c2.1268 3.0182 3.3926 6.7127 3.3926 10.719 0 5.3765-1.7527 10.196-5.3502 13.555 0.39492-0.000113 0.754-0.000026 1.0937 0 3.4109-3.4652 5.0064-8.26 5.0064-13.555 0-3.9707-1.1882-7.6597-3.2207-10.719z" fill="#fff4d2"/>
<path fill="#fff4d2" d="m49.143 5.2383s1.0256 7.1285 1.0625 10.719c0.04663 4.5318-1.0625 13.555-1.0625 13.555h0.75s1.1091-9.0228 1.0625-13.555c-0.037-3.59-1.063-10.719-1.063-10.719z" fill-rule="evenodd"/>
<path stroke-linejoin="round" d="m17.07 1.25a16.25 16.25 0 0 0 -16.25 16.25 16.25 16.25 0 0 0 16.25 16.25 16.25 16.25 0 0 0 10.618 -3.977c0.06872 0.0035 0.13351 0.02148 0.20312 0.02148h52.939c2.216 0 4-1.784 4-4v-16.59c0-2.216-1.784-4-4-4h-52.939c-0.06425 0-0.12401 0.016565-0.1875 0.019531a16.25 16.25 0 0 0 -10.634 -3.9735z" stroke="#333" stroke-linecap="round" stroke-width=".5" fill="none"/>
<g transform="matrix(1 0 0 1.0911 0 -.014685)">
	<path d="m38.707 20.004s-1.5844 0.16235-2.0676 0.16235c-1.4419 0-2.5841-0.40203-3.4268-1.2061-0.84267-0.80793-1.264-1.9019-1.264-3.2819 0-1.3839 0.42133-2.4778 1.264-3.2819 0.84267-0.80793 1.9849-1.2119 3.4268-1.2119 0.48319 0 2.0676 0.16235 2.0676 0.16235l0.058 1.6525s-1.5013-0.19714-1.9458-0.19714c-0.79633 0-1.4226 0.25513-1.8787 0.76538-0.45613 0.51025-0.6842 1.2138-0.6842 2.1106 0 0.89293 0.22807 1.5945 0.6842 2.1048 0.45613 0.51025 1.0824 0.76538 1.8787 0.76538 0.44454 0 1.9458-0.19714 1.9458-0.19714z"/>
	<path d="m46.428 20.004s-1.5844 0.16235-2.0676 0.16235c-1.4419 0-2.5841-0.40202-3.4268-1.2061-0.84269-0.8079-1.264-1.9019-1.264-3.2819 0-1.3839 0.42135-2.4778 1.264-3.2819 0.84269-0.8079 1.985-1.2119 3.4268-1.2119 0.4832 0 2.0676 0.16235 2.0676 0.16235l0.058 1.6525s-1.5013-0.19714-1.9458-0.19714c-0.7963 0-1.4225 0.25513-1.8787 0.76538-0.45614 0.51025-0.6842 1.2138-0.6842 2.1106 0 0.89294 0.22807 1.5945 0.6842 2.1048 0.45614 0.51025 1.0824 0.76538 1.8787 0.76538 0.44454 0 1.9458-0.19714 1.9458-0.19714z"/>
	<path d="m46.527 15.737h2.8502v1.6873h-2.8502z"/>
	<path d="m53.555 14.693q0.52765 0 0.80017-0.23193t0.27252-0.6842q0-0.44647-0.27252-0.67841-0.27252-0.23773-0.80017-0.23773h-1.235v1.8323h1.235zm0.07538 3.7863q0.67261 0 1.0089-0.28412 0.3421-0.28412 0.3421-0.85815 0-0.56244-0.3363-0.84076-0.3363-0.28412-1.0147-0.28412h-1.3104v2.2672h1.3104zm2.0758-3.1137q0.71899 0.20874 1.1133 0.77118 0.39429 0.56244 0.39429 1.38 0 1.2524-0.84656 1.8671-0.84656 0.61462-2.5745 0.61462h-3.7051v-8.6569h3.3514q1.8033 0 2.6093 0.54504 0.81177 0.54504 0.81177 1.7453 0 0.63202-0.29572 1.0785-0.29572 0.44067-0.85815 0.65521z"/>
	<path d="m56.477 11.341h2.4411l1.9714 3.0847 1.9714-3.0847h2.4469l-3.2993 5.0098v3.6472h-2.2324v-3.6472l-3.2993-5.0098z"/>
	<path d="m73.478 11.614v1.8323q-0.7132-0.31891-1.3916-0.48126-0.67841-0.16235-1.2814-0.16235-0.80017 0-1.1829 0.22034-0.38269 0.22034-0.38269 0.6842 0 0.3479 0.25513 0.54504 0.26092 0.19134 0.93933 0.3305l0.95093 0.19134q1.4438 0.28992 2.0526 0.88135 0.60882 0.59143 0.60882 1.6815 0 1.4322-0.85236 2.1338-0.84656 0.6958-2.5919 0.6958-0.82336 0-1.6525-0.15656-0.82916-0.15656-1.6583-0.46387v-1.8845q0.82916 0.44067 1.6003 0.66681 0.77698 0.22034 1.496 0.22034 0.73059 0 1.1191-0.24353 0.38849-0.24353 0.38849-0.6958 0-0.40588-0.26672-0.62622-0.26093-0.22034-1.0495-0.39429l-0.86395-0.19135q-1.2988-0.27832-1.9019-0.88715-0.59723-0.60882-0.59723-1.6409 0-1.293 0.83496-1.9888t2.4005-0.6958q0.7132 0 1.467 0.11017 0.75378 0.10437 1.5598 0.31891z"/>
	<path d="m80.465 18.421h-3.4906l-0.55084 1.5771h-2.244l3.2065-8.6569h2.6614l3.2065 8.6569h-2.244l-0.54504-1.5771zm-2.934-1.6061h2.3715l-1.1829-3.4442-1.1887 3.4442z"/>
	<path d="m64.145 15.737h2.8502v1.6873h-2.8502z"/>
</g>
</svg>